<svg width="148" height="76" viewBox="0 0 148 76" fill="none" xmlns="http://www.w3.org/2000/svg">
<path fill-rule="evenodd" clip-rule="evenodd" d="M2.80638e-06 38.0007C-0.00316943 29.8531 2.68308 21.9323 7.64188 15.4674C12.6007 9.0026 19.5547 4.35532 27.4248 2.2468C35.2948 0.138275 43.6408 0.686429 51.1675 3.80619C58.6942 6.92596 64.9806 12.4429 69.0513 19.5007H129.5C130.108 19.4997 130.71 19.6184 131.272 19.8501C131.834 20.0818 132.344 20.422 132.774 20.8512L146.649 34.7262C147.08 35.1559 147.422 35.6662 147.655 36.2281C147.888 36.79 148.008 37.3924 148.008 38.0007C148.008 38.6091 147.888 39.2115 147.655 39.7733C147.422 40.3352 147.08 40.8456 146.649 41.2752L132.774 55.1502C132.345 55.581 131.835 55.9227 131.273 56.1558C130.711 56.389 130.108 56.509 129.5 56.509C128.892 56.509 128.289 56.389 127.727 56.1558C127.165 55.9227 126.655 55.581 126.225 55.1502L120.25 49.1655L114.274 55.1502C113.845 55.581 113.335 55.9227 112.773 56.1558C112.211 56.389 111.608 56.509 111 56.509C110.392 56.509 109.789 56.389 109.227 56.1558C108.665 55.9227 108.155 55.581 107.725 55.1502L101.75 49.1655L95.7745 55.1502C95.3449 55.581 94.8345 55.9227 94.2726 56.1558C93.7107 56.389 93.1083 56.509 92.5 56.509C91.8916 56.509 91.2893 56.389 90.7274 56.1558C90.1655 55.9227 89.6551 55.581 89.2255 55.1502L83.25 49.1655L77.2745 55.1502C76.8442 55.5795 76.3335 55.9197 75.7717 56.1514C75.2098 56.3831 74.6078 56.5018 74 56.5007H69.0513C64.9806 63.5586 58.6942 69.0755 51.1675 72.1953C43.6408 75.3151 35.2948 75.8632 27.4248 73.7547C19.5547 71.6462 12.6007 66.9989 7.64188 60.5341C2.68308 54.0692 -0.00316943 46.1484 2.80638e-06 38.0007V38.0007ZM37 10.2507C32.0341 10.2526 27.1596 11.5871 22.8851 14.1149C18.6107 16.6426 15.0929 20.2711 12.6987 24.6218C10.3045 28.9725 9.12161 33.886 9.27351 38.8496C9.42542 43.8132 10.9065 48.6451 13.5623 52.8413C16.218 57.0374 19.9511 60.444 24.3722 62.7057C28.7932 64.9674 33.7401 66.0012 38.6969 65.6995C43.6537 65.3977 48.4387 63.7713 52.5527 60.99C56.6667 58.2087 59.9589 54.3743 62.086 49.887C62.4615 49.0985 63.0526 48.4325 63.7909 47.966C64.5292 47.4994 65.3844 47.2515 66.2578 47.2507H72.0853L79.9755 39.3512C80.4051 38.9205 80.9155 38.5788 81.4774 38.3457C82.0393 38.1125 82.6416 37.9925 83.25 37.9925C83.8583 37.9925 84.4607 38.1125 85.0226 38.3457C85.5845 38.5788 86.0949 38.9205 86.5245 39.3512L92.5 45.336L98.4755 39.3512C98.9051 38.9205 99.4155 38.5788 99.9774 38.3457C100.539 38.1125 101.142 37.9925 101.75 37.9925C102.358 37.9925 102.961 38.1125 103.523 38.3457C104.084 38.5788 104.595 38.9205 105.025 39.3512L111 45.336L116.975 39.3512C117.405 38.9205 117.915 38.5788 118.477 38.3457C119.039 38.1125 119.642 37.9925 120.25 37.9925C120.858 37.9925 121.461 38.1125 122.023 38.3457C122.585 38.5788 123.095 38.9205 123.524 39.3512L129.5 45.336L136.835 38.0007L127.585 28.7507H66.2578C65.3844 28.75 64.5292 28.502 63.7909 28.0355C63.0526 27.569 62.4615 26.903 62.086 26.1145C59.8354 21.3666 56.2831 17.3552 51.8422 14.5469C47.4013 11.7385 42.2543 10.2488 37 10.2507V10.2507Z" fill="#1061BF"/>
<path d="M37 38C37 40.4533 36.0254 42.806 34.2907 44.5407C32.556 46.2754 30.2033 47.25 27.75 47.25C25.2967 47.25 22.944 46.2754 21.2093 44.5407C19.4746 42.806 18.5 40.4533 18.5 38C18.5 35.5467 19.4746 33.194 21.2093 31.4593C22.944 29.7246 25.2967 28.75 27.75 28.75C30.2033 28.75 32.556 29.7246 34.2907 31.4593C36.0254 33.194 37 35.5467 37 38Z" fill="#1061BF"/>
</svg>
