<?xml version="1.0" encoding="utf-8"?>
<!-- Generator: Adobe Illustrator 27.0.0, SVG Export Plug-In . SVG Version: 6.00 Build 0)  -->
<svg version="1.1" id="Layer_1" xmlns="http://www.w3.org/2000/svg" xmlns:xlink="http://www.w3.org/1999/xlink" x="0px" y="0px"
	 viewBox="0 0 280 48.1" style="enable-background:new 0 0 280 48.1;" xml:space="preserve">
<style type="text/css">
	.st0{fill:#061C42;}
	.st1{fill:#1061BF;}
</style>
<g>
	<path class="st0" d="M192.3,41.2c-1.2-0.6-2.6-1-3.9-1c-0.7,0-1.4,0.1-2,0.3c-0.5,0.2-0.7,0.5-0.7,0.9c0,0.4,0.3,0.7,0.8,0.8
		c0.6,0.2,1.2,0.3,1.8,0.3c1.2,0.1,2,0.1,2.4,0.2c0.9,0.1,1.7,0.3,2.4,0.8c0.3,0.2,0.5,0.4,0.6,0.7s0.2,0.6,0.2,0.9
		c0,0.4-0.1,0.9-0.3,1.2c-0.2,0.4-0.5,0.7-0.9,0.9c-1.1,0.6-2.3,0.8-3.5,0.8c-2.2,0-3.9-0.5-5.2-1.5l0.8-1c1.3,0.8,2.8,1.3,4.4,1.2
		c0.8,0,1.6-0.1,2.4-0.4c0.2-0.1,0.4-0.2,0.6-0.4c0.1-0.2,0.2-0.4,0.2-0.7c0-0.6-0.4-0.9-1.1-1.1c-1-0.2-2-0.3-3-0.3
		c-1,0-2-0.2-3-0.6c-0.3-0.1-0.6-0.4-0.8-0.7c-0.2-0.3-0.3-0.7-0.2-1c0-0.4,0.1-0.8,0.3-1.1c0.2-0.3,0.5-0.6,0.8-0.8
		c1-0.5,2.1-0.8,3.2-0.7c1.7-0.1,3.3,0.4,4.7,1.3L192.3,41.2z M206.4,43.5c0,0.7-0.1,1.3-0.4,1.9c-0.3,0.6-0.8,1.1-1.3,1.5
		c-1.1,0.8-2.5,1.2-3.8,1.2c-1.4,0-2.7-0.4-3.8-1.2c-0.5-0.4-1-0.9-1.3-1.5c-0.3-0.6-0.5-1.3-0.5-1.9c0-0.7,0.2-1.3,0.5-1.9
		c0.3-0.6,0.8-1.1,1.3-1.5c1.1-0.8,2.4-1.2,3.8-1.2c1.4,0,2.7,0.4,3.8,1.2c0.6,0.4,1,0.9,1.3,1.5C206.2,42.2,206.4,42.8,206.4,43.5
		L206.4,43.5z M204.9,43.5c0-0.5-0.1-1-0.3-1.4c-0.2-0.4-0.6-0.8-1-1.1c-0.8-0.6-1.8-0.9-2.8-0.8c-1.1,0-2.1,0.3-2.9,0.9
		c-0.4,0.3-0.6,0.6-0.8,1.1c-0.2,0.4-0.3,0.9-0.3,1.3c0,0.5,0.1,0.9,0.3,1.3c0.2,0.4,0.5,0.8,0.8,1.1c0.9,0.6,1.9,1,3,0.9
		c1.1,0.1,2.1-0.3,3-0.9c0.4-0.3,0.6-0.6,0.8-1.1C204.8,44.4,204.9,44,204.9,43.5L204.9,43.5z M217,47.9h-8.1v-8.7h1.4v7.4h6.7V47.9
		z M228.3,45c0,0.5-0.1,0.9-0.4,1.3c-0.2,0.4-0.6,0.7-1,0.9c-1.1,0.6-2.3,0.9-3.6,0.9c-1.3,0.1-2.5-0.2-3.6-0.9
		c-0.4-0.2-0.7-0.5-1-0.9c-0.2-0.4-0.4-0.8-0.4-1.3v-5.9h1.4v5.5c0,0.3,0.1,0.6,0.2,0.9c0.2,0.3,0.4,0.5,0.7,0.7
		c0.8,0.4,1.7,0.6,2.6,0.5c0.9,0.1,1.8-0.1,2.6-0.5c0.3-0.2,0.5-0.4,0.7-0.7c0.2-0.3,0.2-0.6,0.2-0.9v-5.5h1.4L228.3,45z
		 M239.4,40.5h-4.1v7.4h-1.4v-7.4h-4.1v-1.3h9.7V40.5z M242.4,47.9h-1.4v-8.7h1.4V47.9z M255.8,43.5c0,0.7-0.1,1.3-0.4,1.9
		c-0.3,0.6-0.8,1.1-1.3,1.5c-1.1,0.8-2.5,1.2-3.8,1.1c-1.4,0-2.7-0.4-3.8-1.2c-0.5-0.4-1-0.9-1.3-1.5c-0.3-0.6-0.5-1.3-0.5-1.9
		c0-0.7,0.2-1.3,0.5-1.9c0.3-0.6,0.8-1.1,1.3-1.5c1.1-0.8,2.4-1.2,3.8-1.2c1.4,0,2.7,0.4,3.8,1.2c0.6,0.4,1,0.9,1.3,1.5
		C255.6,42.2,255.8,42.8,255.8,43.5L255.8,43.5z M254.3,43.5c0-0.5-0.1-1-0.3-1.4c-0.2-0.4-0.6-0.8-1-1.1c-0.8-0.6-1.8-0.9-2.8-0.8
		c-1.1,0-2.1,0.3-2.9,0.9c-0.4,0.3-0.6,0.6-0.8,1.1c-0.2,0.4-0.3,0.9-0.3,1.3c0,0.5,0.1,0.9,0.3,1.3c0.2,0.4,0.5,0.8,0.8,1.1
		c0.9,0.6,1.9,1,3,0.9c1.1,0.1,2.1-0.3,3-0.9c0.4-0.3,0.6-0.6,0.8-1.1C254.2,44.4,254.3,44,254.3,43.5L254.3,43.5z M268.1,47.9h-1.8
		l-6.6-7.1v7.1h-1.4v-8.7h1.8l6.6,7.1v-7.1h1.4L268.1,47.9z M278.6,41.2c-1.2-0.6-2.6-1-3.9-1c-0.7,0-1.4,0.1-2,0.3
		c-0.5,0.2-0.7,0.5-0.7,0.9c0,0.4,0.3,0.7,0.8,0.8c0.6,0.2,1.2,0.3,1.8,0.3c1.2,0.1,2,0.1,2.4,0.2c0.9,0.1,1.7,0.3,2.4,0.8
		c0.3,0.2,0.5,0.4,0.6,0.7c0.1,0.3,0.2,0.6,0.2,0.9c0,0.4-0.1,0.9-0.3,1.2c-0.2,0.4-0.5,0.7-0.9,0.9c-1.1,0.6-2.3,0.8-3.5,0.8
		c-2.2,0-3.9-0.5-5.2-1.5l0.8-1c1.3,0.8,2.8,1.3,4.4,1.2c0.8,0,1.6-0.1,2.4-0.4c0.2-0.1,0.4-0.2,0.6-0.4c0.1-0.2,0.2-0.4,0.2-0.7
		c0-0.6-0.4-0.9-1.1-1.1c-1-0.2-2-0.3-3-0.3c-1,0-2-0.2-3-0.6c-0.3-0.1-0.6-0.4-0.8-0.7c-0.2-0.3-0.3-0.7-0.2-1
		c0-0.4,0.1-0.8,0.3-1.1c0.2-0.3,0.5-0.6,0.8-0.8c1-0.5,2.1-0.8,3.2-0.7c1.7-0.1,3.3,0.4,4.7,1.3L278.6,41.2z"/>
	<path class="st0" d="M188.3,22.2c2.8,0,5.1-2.3,5.1-5.1c0-2.8-2.3-5.1-5.1-5.1c-2.8,0-5.1,2.3-5.1,5.1
		C183.2,19.9,185.5,22.2,188.3,22.2z"/>
	<path class="st0" d="M176.8,17.1h-5.6c0-4.5,1.8-8.9,5-12.1c3.2-3.2,7.5-5,12.1-5v5.6c-3,0-6,1.2-8.1,3.4
		C178,11.1,176.8,14,176.8,17.1z"/>
	<path class="st1" d="M188.2,28.6v5.6c4.5,0,8.9-1.8,12.1-5c3.2-3.2,5-7.5,5-12.1h-5.6c0,3-1.2,6-3.4,8.1
		C194.2,27.4,191.3,28.6,188.2,28.6z"/>
	<path class="st1" d="M188.2,34.1v-5.6c-3,0-6-1.2-8.1-3.4c-2.2-2.2-3.4-5.1-3.4-8.1h-5.6c0,4.5,1.8,8.9,5,12.1
		C179.4,32.3,183.7,34.1,188.2,34.1z"/>
	<path class="st0" d="M0,31.2h4.9V18.1h17.3v-4.4H4.9V6.1h24.9V1.6H0V31.2z"/>
	<path class="st0" d="M39.4,1.6h-4.9v29.6h4.9V1.6z"/>
	<path class="st0" d="M74.6,25.9L52,1.6h-6.1v29.6h4.9V7l22.5,24.2h6.1V1.6h-4.9V25.9z"/>
	<path class="st0" d="M116.9,5.7c-3-2.7-7.1-4.1-12.2-4.1H86v29.6h19.6c4.4,0,8-1.3,11-3.9c1.5-1.3,2.7-2.9,3.6-4.7
		c0.8-1.8,1.2-3.8,1.2-5.8C121.4,12.1,119.9,8.5,116.9,5.7z M113.3,24c-0.9,0.9-2.1,1.7-3.3,2.2c-1.2,0.5-2.6,0.7-3.9,0.7H90.9V6.1
		h14.2c3.3,0,6,1,8,2.9c2,1.9,3,4.5,3,7.7c0,1.3-0.2,2.7-0.7,4C115,21.8,114.2,23,113.3,24z"/>
	<path class="st0" d="M161.8,7v24.2h4.9V1.6h-6.1l-14.2,17.9L132.3,1.6h-6.1v29.6h4.9V7h0.1l15.2,19.3L161.7,7H161.8z"/>
	<path class="st0" d="M241.6,17c1.4-1.5,2.2-3.5,2.2-6c0-2.9-0.9-5.1-2.7-6.8c-1.8-1.7-4.2-2.5-7.3-2.5h-23.3v29.6h4.9V19.9h14.9
		l8,11.3h5.7l-7.9-11.5C238.2,19.4,240.2,18.5,241.6,17z M215.5,15.5V6h17.2c4.1,0,6.1,1.6,6.1,4.9c0,3-1.9,4.6-5.7,4.6L215.5,15.5z
		"/>
	<path class="st0" d="M253.5,26.8v-8.7h17.3v-4.4h-17.3V6.1h24.9V1.6h-29.8v29.6h30.9v-4.4L253.5,26.8z"/>
</g>
</svg>
