<svg width="61" height="62" viewBox="0 0 61 62" fill="none" xmlns="http://www.w3.org/2000/svg">
<path d="M30.6772 39.7199C35.7364 39.7199 39.8377 35.6188 39.8377 30.5599C39.8377 25.501 35.7364 21.3999 30.6772 21.3999C25.6179 21.3999 21.5166 25.501 21.5166 30.5599C21.5166 35.6188 25.6179 39.7199 30.6772 39.7199Z" fill="#061C42"/>
<path d="M9.94783 30.5006H0C0.0089786 22.4143 3.2254 14.6616 8.9436 8.94363C14.6618 3.22563 22.4148 0.0091974 30.5017 0V9.95094C25.0525 9.95608 19.828 12.1227 15.9746 15.9753C12.1212 19.8279 9.95374 25.0518 9.94783 30.5006Z" fill="#061C42"/>
<path d="M30.4976 51.1684V61.1185C38.5843 61.1094 46.3373 57.8932 52.0556 52.1755C57.7739 46.4578 60.9906 38.7054 61 30.6191H51.0444C51.0383 36.0667 48.8718 41.2894 45.0199 45.1417C41.1681 48.994 35.9454 51.1614 30.4976 51.1684Z" fill="#1061BF"/>
<path d="M30.4975 61.1185V51.1684C25.0492 51.1621 19.8259 48.995 15.9734 45.1426C12.121 41.2902 9.95396 36.0671 9.94783 30.6191H0C0.00941412 38.7045 3.22545 46.4562 8.94269 52.1737C14.6599 57.8913 22.4116 61.1081 30.4975 61.1185Z" fill="#1061BF"/>
</svg>
