<svg width="512" height="88" viewBox="0 0 512 88" fill="none" xmlns="http://www.w3.org/2000/svg">
<path d="M351.593 75.3474C349.375 74.1804 346.909 73.5626 344.403 73.5458C343.135 73.4868 341.868 73.6806 340.677 74.1161C339.814 74.4963 339.384 75.0228 339.384 75.6954C339.384 76.3969 339.844 76.9089 340.764 77.2315C341.814 77.5287 342.897 77.6908 343.987 77.7138C346.178 77.86 347.625 77.9772 348.327 78.0652C349.895 78.1813 351.409 78.6866 352.733 79.5353C353.201 79.8885 353.576 80.351 353.824 80.8824C354.072 81.4138 354.187 81.9979 354.158 82.5838C354.176 83.3765 353.977 84.1591 353.583 84.847C353.189 85.5349 352.615 86.1019 351.922 86.4868C349.946 87.5236 347.726 88.0031 345.499 87.8739C341.451 87.8739 338.302 86.9822 336.051 85.1988L337.498 83.2884C339.905 84.7887 342.685 85.5801 345.521 85.5718C347.001 85.6431 348.478 85.3792 349.841 84.7999C350.26 84.6429 350.623 84.3652 350.884 84.0021C351.146 83.6389 351.294 83.2064 351.31 82.7591C351.31 81.7494 350.667 81.0765 349.382 80.7403C347.582 80.4409 345.765 80.259 343.942 80.1958C342.062 80.1729 340.2 79.8161 338.444 79.142C337.861 78.8716 337.374 78.4317 337.046 77.8799C336.717 77.328 336.562 76.6898 336.602 76.0485C336.596 75.3246 336.789 74.613 337.158 73.9904C337.527 73.3678 338.058 72.8579 338.696 72.5156C340.51 71.554 342.553 71.1066 344.603 71.2217C347.638 71.1141 350.635 71.9329 353.195 73.5695L351.593 75.3474ZM377.388 79.5391C377.413 80.7741 377.134 81.9962 376.576 83.0981C376.018 84.1999 375.198 85.1478 374.189 85.8585C372.116 87.2356 369.683 87.9682 367.195 87.9642C364.707 87.9601 362.276 87.2195 360.208 85.8356C359.213 85.1155 358.404 84.1687 357.848 83.0735C357.292 81.9784 357.004 80.7664 357.008 79.5379C357.013 78.3093 357.309 77.0994 357.873 76.0083C358.438 74.9173 359.253 73.9763 360.253 73.2634C362.273 71.7916 364.726 71.0353 367.224 71.1137C369.715 71.0288 372.163 71.786 374.172 73.2634C375.178 73.9688 375.997 74.909 376.558 76.0026C377.119 77.0962 377.406 78.3102 377.393 79.5395L377.388 79.5391ZM374.649 79.5391C374.661 78.648 374.451 77.7679 374.037 76.9787C373.624 76.1895 373.02 75.5161 372.28 75.0197C370.799 73.9869 369.022 73.4634 367.217 73.5276C365.276 73.4416 363.367 74.044 361.825 75.2288C361.179 75.7492 360.657 76.4073 360.297 77.1552C359.937 77.9032 359.748 78.7221 359.744 79.5523C359.739 80.3826 359.92 81.2033 360.273 81.9547C360.626 82.7061 361.142 83.3693 361.783 83.896C363.347 85.0658 365.27 85.6512 367.22 85.5506C369.16 85.6487 371.072 85.0582 372.619 83.8833C373.273 83.3672 373.797 82.7057 374.15 81.9514C374.503 81.197 374.676 80.3706 374.654 79.5378L374.649 79.5391ZM396.747 87.5034H381.864V71.6176H384.494V85.1103H396.747V87.5034ZM417.373 82.3692C417.367 83.1931 417.14 84.0003 416.716 84.7065C416.292 85.4128 415.686 85.9922 414.962 86.3843C412.978 87.5423 410.702 88.0987 408.408 87.9857C406.101 88.0938 403.811 87.5381 401.81 86.3843C401.088 85.9893 400.485 85.4092 400.061 84.7036C399.637 83.998 399.409 83.1923 399.399 82.3692V71.6176H402.032V81.7315C402.015 82.3115 402.158 82.8849 402.447 83.3883C402.735 83.8918 403.157 84.3056 403.665 84.584C405.132 85.3282 406.769 85.6691 408.41 85.5718C410.044 85.6708 411.674 85.3297 413.13 84.584C413.634 84.3017 414.051 83.8864 414.335 83.3834C414.618 82.8804 414.759 82.309 414.741 81.7315V71.6176H417.371L417.373 82.3692ZM437.825 74.0086H430.24V87.5026H427.609V74.0086H420.029V71.6167H437.825V74.0086ZM443.215 87.5026H440.584V71.6176H443.215V87.5026ZM467.742 79.5383C467.767 80.7733 467.488 81.9954 466.93 83.0973C466.372 84.1991 465.552 85.147 464.543 85.8576C462.469 87.2329 460.035 87.9641 457.547 87.9593C455.059 87.9545 452.627 87.2139 450.558 85.8305C449.564 85.1104 448.755 84.1637 448.199 83.0685C447.642 81.9734 447.354 80.7615 447.359 79.5329C447.363 78.3043 447.66 77.0944 448.224 76.0033C448.788 74.9122 449.604 73.9713 450.603 73.2583C452.624 71.7866 455.076 71.0302 457.574 71.1087C460.066 71.0238 462.513 71.781 464.523 73.2583C465.529 73.964 466.348 74.9048 466.91 75.9991C467.471 77.0934 467.757 78.3083 467.743 79.5383H467.742ZM465.003 79.5383C465.015 78.6471 464.805 77.767 464.391 76.9778C463.977 76.1886 463.373 75.5152 462.634 75.0188C461.152 73.9861 459.375 73.4626 457.571 73.5267C455.629 73.4407 453.72 74.0432 452.179 75.228C451.533 75.7484 451.01 76.4065 450.65 77.1544C450.29 77.9023 450.101 78.7212 450.097 79.5515C450.093 80.3817 450.274 81.2025 450.627 81.9539C450.98 82.7053 451.495 83.3685 452.137 83.8951C453.7 85.0653 455.623 85.6513 457.572 85.5515C459.512 85.6495 461.424 85.0591 462.971 83.8841C463.624 83.3678 464.148 82.706 464.501 81.9515C464.854 81.197 465.025 80.3706 465.003 79.5378L465.003 79.5383ZM490.232 87.5026H486.988L474.846 74.4701V87.5026H472.219V71.6176H475.486L487.602 84.6501V71.6176H490.233L490.232 87.5026ZM509.429 75.3474C507.21 74.1804 504.744 73.5626 502.238 73.5458C500.97 73.4868 499.704 73.6807 498.512 74.1161C497.65 74.4963 497.219 75.0228 497.219 75.6954C497.219 76.3969 497.679 76.9089 498.6 77.2315C499.649 77.5287 500.732 77.6908 501.822 77.7138C504.014 77.86 505.46 77.9772 506.162 78.0652C507.731 78.1812 509.246 78.6867 510.571 79.5361C511.039 79.8894 511.413 80.3518 511.661 80.8832C511.91 81.4146 512.025 81.9987 511.996 82.5847C512.014 83.3774 511.815 84.1599 511.421 84.8478C511.027 85.5357 510.453 86.1027 509.76 86.4876C507.786 87.5233 505.567 88.0027 503.341 87.8747C499.293 87.8747 496.144 86.9823 493.894 85.1975L495.341 83.2888C497.748 84.7884 500.528 85.5791 503.363 85.5705C504.842 85.6426 506.318 85.3802 507.681 84.8029C508.1 84.6458 508.463 84.3682 508.724 84.005C508.985 83.6419 509.134 83.2094 509.15 82.7621C509.15 81.7524 508.507 81.0795 507.221 80.7433C505.423 80.4419 503.607 80.258 501.784 80.1929C499.904 80.1708 498.042 79.8143 496.285 79.1398C495.703 78.8695 495.216 78.4297 494.887 77.8778C494.559 77.3259 494.404 76.6877 494.444 76.0464C494.438 75.3226 494.63 74.611 494.999 73.9884C495.368 73.3658 495.9 72.8558 496.537 72.5135C498.352 71.5519 500.394 71.1045 502.444 71.2196C505.48 71.1132 508.476 71.9333 511.036 73.5712L509.429 75.3474Z" fill="#061C42"/>
<path d="M344.401 40.5937C349.573 40.5937 353.767 36.3962 353.767 31.2182C353.767 26.0403 349.573 21.8427 344.401 21.8427C339.228 21.8427 335.034 26.0403 335.034 31.2182C335.034 36.3962 339.228 40.5937 344.401 40.5937Z" fill="#061C42"/>
<path d="M323.206 31.2182H313.035C313.044 22.9416 316.332 15.0066 322.179 9.15405C328.026 3.30152 335.953 0.00941379 344.221 0V10.1851C338.65 10.1903 333.308 12.4079 329.368 16.3512C325.428 20.2944 323.212 25.6412 323.206 31.2182Z" fill="#061C42"/>
<path d="M344.217 52.2509V62.4351C352.485 62.4258 360.412 59.134 366.259 53.2817C372.106 47.4295 375.395 39.4947 375.404 31.2182H365.225C365.219 36.7939 363.004 42.1395 359.065 46.0824C355.127 50.0254 349.787 52.2438 344.217 52.2509Z" fill="#1061BF"/>
<path d="M344.217 62.4351V52.2509C338.646 52.2444 333.306 50.0264 329.367 46.0834C325.428 42.1403 323.212 36.7944 323.206 31.2182H313.035C313.044 39.4938 316.333 47.4278 322.178 53.2799C328.024 59.132 335.949 62.4245 344.217 62.4351Z" fill="#1061BF"/>
<path d="M0 57.0431H8.95126V33.0084H40.5645V24.9552H8.95041V11.0674H54.4338V3.00238H0V57.0431Z" fill="#061C42"/>
<path d="M72.0334 3.00238H63.0822V57.0431H72.0334V3.00238Z" fill="#061C42"/>
<path d="M136.368 47.3471L95.1353 3.00238H84.0205V57.046H92.976V12.7302L134.189 57.046H145.318V3.00238H136.368V47.3471Z" fill="#061C42"/>
<path d="M213.791 10.5115C208.304 5.50657 200.851 3.00409 191.431 3.00409H157.309V57.0507H193.178C201.176 57.0507 207.889 54.6585 213.316 49.874C216.109 47.5176 218.341 44.5666 219.848 41.2364C221.356 37.9062 222.101 34.2809 222.03 30.6255C222.028 22.2118 219.282 15.5072 213.791 10.5115ZM207.154 43.7951C205.419 45.5198 203.35 46.871 201.074 47.766C198.797 48.6609 196.363 49.0806 193.919 48.9992H166.26V11.0687H192.226C198.251 11.0687 203.11 12.8425 206.802 16.3901C210.495 19.9377 212.346 24.6081 212.357 30.4015C212.438 32.8699 212.019 35.3293 211.125 37.6313C210.231 39.9332 208.88 42.03 207.154 43.7951Z" fill="#061C42"/>
<path d="M295.929 12.8572V57.0431H304.872V3.00067H293.729L267.734 35.6619L241.862 3.00067H230.683V57.0443H239.626V12.8572H239.85L267.67 48.0846L295.705 12.8572H295.929Z" fill="#061C42"/>
<path d="M441.863 31.0658C444.498 28.2885 445.815 24.6088 445.815 20.0267C445.815 14.7996 444.2 10.6553 440.968 7.5938C437.737 4.53229 433.289 3.00182 427.626 3.00238H385.033V57.0507H393.976V36.4452H421.233L435.838 57.0507H446.268L431.799 35.9968C435.61 35.5245 439.153 33.7886 441.863 31.0658ZM393.992 28.3877V11.0598H425.463C432.921 11.0598 436.65 14.0465 436.65 20.02C436.65 25.5934 433.195 28.3803 426.286 28.3805L393.992 28.3877Z" fill="#061C42"/>
<path d="M463.566 48.9844V33.0084H495.179V24.9552H463.566V11.0674H509.049V3.00238H454.608V57.046H511.134V48.9886L463.566 48.9844Z" fill="#061C42"/>
</svg>
